<svg id="visual" viewBox="0 0 900 600" width="900" height="600" xmlns="http://www.w3.org/2000/svg" xmlns:xlink="http://www.w3.org/1999/xlink" version="1.1"><path d="M0 157L13.7 145C27.3 133 54.7 109 82 107C109.3 105 136.7 125 163.8 134C191 143 218 141 245.2 141C272.3 141 299.7 143 327 143C354.3 143 381.7 141 409 135C436.3 129 463.7 119 491 109C518.3 99 545.7 89 573 88C600.3 87 627.7 95 654.8 93C682 91 709 79 736.2 83C763.3 87 790.7 107 818 106C845.3 105 872.7 83 886.3 72L900 61L900 0L886.3 0C872.7 0 845.3 0 818 0C790.7 0 763.3 0 736.2 0C709 0 682 0 654.8 0C627.7 0 600.3 0 573 0C545.7 0 518.3 0 491 0C463.7 0 436.3 0 409 0C381.7 0 354.3 0 327 0C299.7 0 272.3 0 245.2 0C218 0 191 0 163.8 0C136.7 0 109.3 0 82 0C54.7 0 27.3 0 13.7 0L0 0Z" fill="#e9f4fd"></path><path d="M0 223L13.7 227C27.3 231 54.7 239 82 254C109.3 269 136.7 291 163.8 308C191 325 218 337 245.2 333C272.3 329 299.7 309 327 301C354.3 293 381.7 297 409 285C436.3 273 463.7 245 491 247C518.3 249 545.7 281 573 281C600.3 281 627.7 249 654.8 238C682 227 709 237 736.2 236C763.3 235 790.7 223 818 230C845.3 237 872.7 263 886.3 276L900 289L900 59L886.3 70C872.7 81 845.3 103 818 104C790.7 105 763.3 85 736.2 81C709 77 682 89 654.8 91C627.7 93 600.3 85 573 86C545.7 87 518.3 97 491 107C463.7 117 436.3 127 409 133C381.7 139 354.3 141 327 141C299.7 141 272.3 139 245.2 139C218 139 191 141 163.8 132C136.7 123 109.3 103 82 105C54.7 107 27.3 131 13.7 143L0 155Z" fill="#f7fafe"></path><path d="M0 301L13.7 309C27.3 317 54.7 333 82 342C109.3 351 136.7 353 163.8 364C191 375 218 395 245.2 396C272.3 397 299.7 379 327 376C354.3 373 381.7 385 409 378C436.3 371 463.7 345 491 343C518.3 341 545.7 363 573 359C600.3 355 627.7 325 654.8 310C682 295 709 295 736.2 296C763.3 297 790.7 299 818 313C845.3 327 872.7 353 886.3 366L900 379L900 287L886.3 274C872.7 261 845.3 235 818 228C790.7 221 763.3 233 736.2 234C709 235 682 225 654.8 236C627.7 247 600.3 279 573 279C545.7 279 518.3 247 491 245C463.7 243 436.3 271 409 283C381.7 295 354.3 291 327 299C299.7 307 272.3 327 245.2 331C218 335 191 323 163.8 306C136.7 289 109.3 267 82 252C54.7 237 27.3 229 13.7 225L0 221Z" fill="#ffffff"></path><path d="M0 391L13.7 395C27.3 399 54.7 407 82 418C109.3 429 136.7 443 163.8 460C191 477 218 497 245.2 500C272.3 503 299.7 489 327 476C354.3 463 381.7 451 409 443C436.3 435 463.7 431 491 440C518.3 449 545.7 471 573 456C600.3 441 627.7 389 654.8 368C682 347 709 357 736.2 368C763.3 379 790.7 391 818 406C845.3 421 872.7 439 886.3 448L900 457L900 377L886.3 364C872.7 351 845.3 325 818 311C790.7 297 763.3 295 736.2 294C709 293 682 293 654.8 308C627.7 323 600.3 353 573 357C545.7 361 518.3 339 491 341C463.7 343 436.3 369 409 376C381.7 383 354.3 371 327 374C299.7 377 272.3 395 245.2 394C218 393 191 373 163.8 362C136.7 351 109.3 349 82 340C54.7 331 27.3 315 13.7 307L0 299Z" fill="#f7fafe"></path><path d="M0 601L13.7 601C27.3 601 54.7 601 82 601C109.3 601 136.7 601 163.8 601C191 601 218 601 245.2 601C272.3 601 299.7 601 327 601C354.3 601 381.7 601 409 601C436.3 601 463.7 601 491 601C518.3 601 545.7 601 573 601C600.3 601 627.7 601 654.8 601C682 601 709 601 736.2 601C763.3 601 790.7 601 818 601C845.3 601 872.7 601 886.3 601L900 601L900 455L886.3 446C872.7 437 845.3 419 818 404C790.7 389 763.3 377 736.2 366C709 355 682 345 654.8 366C627.7 387 600.3 439 573 454C545.7 469 518.3 447 491 438C463.7 429 436.3 433 409 441C381.7 449 354.3 461 327 474C299.7 487 272.3 501 245.2 498C218 495 191 475 163.8 458C136.7 441 109.3 427 82 416C54.7 405 27.3 397 13.7 393L0 389Z" fill="#e9f4fd"></path></svg>