<svg id="visual" viewBox="0 0 900 600" width="900" height="600" xmlns="http://www.w3.org/2000/svg" xmlns:xlink="http://www.w3.org/1999/xlink" version="1.1"><g stroke-width="1" stroke-linejoin="bevel"><path d="M439 306L514 304L493 225Z" fill="#cce6fb" stroke="#cce6fb"></path><path d="M514 304L572 279L493 225Z" fill="#e9f4fd" stroke="#e9f4fd"></path><path d="M514 93L430 163L493 225Z" fill="#daedfc" stroke="#daedfc"></path><path d="M493 225L430 163L439 306Z" fill="#d3e9fb" stroke="#d3e9fb"></path><path d="M439 306L534 397L514 304Z" fill="#b5dbf9" stroke="#b5dbf9"></path><path d="M514 304L534 397L572 279Z" fill="#c4e2fa" stroke="#c4e2fa"></path><path d="M670 310L606 190L572 279Z" fill="#cce6fb" stroke="#cce6fb"></path><path d="M572 279L606 190L493 225Z" fill="#e2f0fc" stroke="#e2f0fc"></path><path d="M498 468L565 429L534 397Z" fill="#daedfc" stroke="#daedfc"></path><path d="M534 397L670 310L572 279Z" fill="#e9f4fd" stroke="#e9f4fd"></path><path d="M606 190L514 93L493 225Z" fill="#d3e9fb" stroke="#d3e9fb"></path><path d="M307 90L295 236L430 163Z" fill="#add8f9" stroke="#add8f9"></path><path d="M430 163L295 236L439 306Z" fill="#c4e2fa" stroke="#c4e2fa"></path><path d="M439 306L360 423L534 397Z" fill="#e9f4fd" stroke="#e9f4fd"></path><path d="M274 272L360 423L439 306Z" fill="#bcdffa" stroke="#bcdffa"></path><path d="M514 93L398 98L430 163Z" fill="#a5d4f8" stroke="#a5d4f8"></path><path d="M360 423L498 468L534 397Z" fill="#9dd1f8" stroke="#9dd1f8"></path><path d="M565 429L670 310L534 397Z" fill="#d3e9fb" stroke="#d3e9fb"></path><path d="M295 236L274 272L439 306Z" fill="#add8f9" stroke="#add8f9"></path><path d="M670 310L683 189L606 190Z" fill="#daedfc" stroke="#daedfc"></path><path d="M606 190L632 73L514 93Z" fill="#d3e9fb" stroke="#d3e9fb"></path><path d="M360 423L414 492L498 468Z" fill="#e2f0fc" stroke="#e2f0fc"></path><path d="M274 272L289 407L360 423Z" fill="#c4e2fa" stroke="#c4e2fa"></path><path d="M360 423L278 468L414 492Z" fill="#e2f0fc" stroke="#e2f0fc"></path><path d="M322 0L307 90L398 98Z" fill="#add8f9" stroke="#add8f9"></path><path d="M398 98L307 90L430 163Z" fill="#e2f0fc" stroke="#e2f0fc"></path><path d="M295 236L195 200L274 272Z" fill="#add8f9" stroke="#add8f9"></path><path d="M706 127L632 73L606 190Z" fill="#d3e9fb" stroke="#d3e9fb"></path><path d="M514 93L413 0L398 98Z" fill="#e9f4fd" stroke="#e9f4fd"></path><path d="M707 519L727 372L565 429Z" fill="#e2f0fc" stroke="#e2f0fc"></path><path d="M565 429L727 372L670 310Z" fill="#e2f0fc" stroke="#e2f0fc"></path><path d="M670 310L804 289L683 189Z" fill="#9dd1f8" stroke="#9dd1f8"></path><path d="M791 160L706 127L683 189Z" fill="#c4e2fa" stroke="#c4e2fa"></path><path d="M683 189L706 127L606 190Z" fill="#add8f9" stroke="#add8f9"></path><path d="M563 0L521 0L514 93Z" fill="#daedfc" stroke="#daedfc"></path><path d="M180 387L278 468L289 407Z" fill="#a5d4f8" stroke="#a5d4f8"></path><path d="M289 407L278 468L360 423Z" fill="#9dd1f8" stroke="#9dd1f8"></path><path d="M521 0L413 0L514 93Z" fill="#daedfc" stroke="#daedfc"></path><path d="M632 73L563 0L514 93Z" fill="#a5d4f8" stroke="#a5d4f8"></path><path d="M672 0L563 0L632 73Z" fill="#d3e9fb" stroke="#d3e9fb"></path><path d="M307 90L195 200L295 236Z" fill="#e9f4fd" stroke="#e9f4fd"></path><path d="M274 272L180 387L289 407Z" fill="#cce6fb" stroke="#cce6fb"></path><path d="M489 600L606 539L498 468Z" fill="#cce6fb" stroke="#cce6fb"></path><path d="M498 468L606 539L565 429Z" fill="#b5dbf9" stroke="#b5dbf9"></path><path d="M489 600L498 468L414 492Z" fill="#cce6fb" stroke="#cce6fb"></path><path d="M195 200L174 282L274 272Z" fill="#a5d4f8" stroke="#a5d4f8"></path><path d="M413 0L322 0L398 98Z" fill="#a5d4f8" stroke="#a5d4f8"></path><path d="M307 90L192 111L195 200Z" fill="#b5dbf9" stroke="#b5dbf9"></path><path d="M174 282L180 387L274 272Z" fill="#bcdffa" stroke="#bcdffa"></path><path d="M162 0L192 111L307 90Z" fill="#add8f9" stroke="#add8f9"></path><path d="M195 200L135 200L174 282Z" fill="#a5d4f8" stroke="#a5d4f8"></path><path d="M411 600L489 600L414 492Z" fill="#d3e9fb" stroke="#d3e9fb"></path><path d="M826 390L804 289L727 372Z" fill="#add8f9" stroke="#add8f9"></path><path d="M727 372L804 289L670 310Z" fill="#bcdffa" stroke="#bcdffa"></path><path d="M339 600L414 492L278 468Z" fill="#9dd1f8" stroke="#9dd1f8"></path><path d="M339 600L411 600L414 492Z" fill="#a5d4f8" stroke="#a5d4f8"></path><path d="M804 289L791 160L683 189Z" fill="#d3e9fb" stroke="#d3e9fb"></path><path d="M706 127L672 0L632 73Z" fill="#d3e9fb" stroke="#d3e9fb"></path><path d="M828 0L672 0L706 127Z" fill="#9dd1f8" stroke="#9dd1f8"></path><path d="M690 600L707 519L606 539Z" fill="#e2f0fc" stroke="#e2f0fc"></path><path d="M606 539L707 519L565 429Z" fill="#b5dbf9" stroke="#b5dbf9"></path><path d="M489 600L579 600L606 539Z" fill="#cce6fb" stroke="#cce6fb"></path><path d="M900 119L791 132L791 160Z" fill="#a5d4f8" stroke="#a5d4f8"></path><path d="M791 160L791 132L706 127Z" fill="#cce6fb" stroke="#cce6fb"></path><path d="M192 111L135 200L195 200Z" fill="#cce6fb" stroke="#cce6fb"></path><path d="M174 282L112 325L180 387Z" fill="#b5dbf9" stroke="#b5dbf9"></path><path d="M180 387L230 528L278 468Z" fill="#add8f9" stroke="#add8f9"></path><path d="M230 528L339 600L278 468Z" fill="#d3e9fb" stroke="#d3e9fb"></path><path d="M135 200L112 325L174 282Z" fill="#bcdffa" stroke="#bcdffa"></path><path d="M180 387L136 517L230 528Z" fill="#add8f9" stroke="#add8f9"></path><path d="M788 470L826 390L727 372Z" fill="#add8f9" stroke="#add8f9"></path><path d="M804 289L900 215L791 160Z" fill="#9dd1f8" stroke="#9dd1f8"></path><path d="M794 600L788 470L707 519Z" fill="#daedfc" stroke="#daedfc"></path><path d="M707 519L788 470L727 372Z" fill="#d3e9fb" stroke="#d3e9fb"></path><path d="M579 600L690 600L606 539Z" fill="#bcdffa" stroke="#bcdffa"></path><path d="M322 0L162 0L307 90Z" fill="#c4e2fa" stroke="#c4e2fa"></path><path d="M192 111L72 81L135 200Z" fill="#add8f9" stroke="#add8f9"></path><path d="M0 316L64 399L112 325Z" fill="#daedfc" stroke="#daedfc"></path><path d="M64 399L136 517L180 387Z" fill="#c4e2fa" stroke="#c4e2fa"></path><path d="M230 528L175 600L339 600Z" fill="#c4e2fa" stroke="#c4e2fa"></path><path d="M900 383L900 313L826 390Z" fill="#add8f9" stroke="#add8f9"></path><path d="M826 390L900 313L804 289Z" fill="#b5dbf9" stroke="#b5dbf9"></path><path d="M900 313L900 215L804 289Z" fill="#c4e2fa" stroke="#c4e2fa"></path><path d="M791 132L828 0L706 127Z" fill="#cce6fb" stroke="#cce6fb"></path><path d="M0 316L112 325L0 221Z" fill="#e2f0fc" stroke="#e2f0fc"></path><path d="M112 325L64 399L180 387Z" fill="#c4e2fa" stroke="#c4e2fa"></path><path d="M900 509L900 383L826 390Z" fill="#add8f9" stroke="#add8f9"></path><path d="M900 509L826 390L788 470Z" fill="#a5d4f8" stroke="#a5d4f8"></path><path d="M112 600L175 600L136 517Z" fill="#a5d4f8" stroke="#a5d4f8"></path><path d="M136 517L175 600L230 528Z" fill="#e9f4fd" stroke="#e9f4fd"></path><path d="M900 119L828 0L791 132Z" fill="#add8f9" stroke="#add8f9"></path><path d="M162 0L72 81L192 111Z" fill="#bcdffa" stroke="#bcdffa"></path><path d="M900 215L900 119L791 160Z" fill="#9dd1f8" stroke="#9dd1f8"></path><path d="M162 0L109 0L72 81Z" fill="#e2f0fc" stroke="#e2f0fc"></path><path d="M690 600L794 600L707 519Z" fill="#daedfc" stroke="#daedfc"></path><path d="M0 221L112 325L135 200Z" fill="#e9f4fd" stroke="#e9f4fd"></path><path d="M0 503L112 600L136 517Z" fill="#cce6fb" stroke="#cce6fb"></path><path d="M0 136L135 200L72 81Z" fill="#daedfc" stroke="#daedfc"></path><path d="M0 136L0 221L135 200Z" fill="#add8f9" stroke="#add8f9"></path><path d="M794 600L900 509L788 470Z" fill="#daedfc" stroke="#daedfc"></path><path d="M0 503L136 517L64 399Z" fill="#e2f0fc" stroke="#e2f0fc"></path><path d="M0 316L0 391L64 399Z" fill="#e2f0fc" stroke="#e2f0fc"></path><path d="M0 0L0 136L72 81Z" fill="#e2f0fc" stroke="#e2f0fc"></path><path d="M900 119L900 0L828 0Z" fill="#bcdffa" stroke="#bcdffa"></path><path d="M0 391L0 503L64 399Z" fill="#9dd1f8" stroke="#9dd1f8"></path><path d="M794 600L900 600L900 509Z" fill="#daedfc" stroke="#daedfc"></path><path d="M109 0L0 0L72 81Z" fill="#c4e2fa" stroke="#c4e2fa"></path><path d="M0 503L0 600L112 600Z" fill="#c4e2fa" stroke="#c4e2fa"></path></g></svg>